<svg width="26" height="27" viewBox="0 0 26 27" fill="none" xmlns="http://www.w3.org/2000/svg">
<g clip-path="url(#clip0_26354_121)">
<path d="M8.91078 18.2106C13.4466 18.2106 17.1219 14.344 17.1219 9.57465C17.1219 4.80526 13.4466 0.938721 8.91078 0.938721C4.37492 0.938721 0.699651 4.80526 0.699651 9.57465C0.699651 11.4687 1.27996 13.2204 2.26292 14.6483C2.12476 15.1095 1.91948 15.5168 1.70236 15.8602C1.51287 16.1645 1.31943 16.4 1.17732 16.5619C1.10626 16.6404 1.04704 16.7042 1.00757 16.7435C0.98783 16.7631 0.972039 16.7778 0.964144 16.7827L0.956249 16.7925C0.739127 16.9937 0.644384 17.347 0.731232 17.6659C0.818081 17.9849 1.05889 18.2106 1.33128 18.2106C2.19187 18.2106 3.06035 17.9358 3.78277 17.5972C4.14596 17.4255 4.48546 17.2341 4.78153 17.0379C5.99346 17.7837 7.40278 18.2106 8.91078 18.2106ZM18.3852 9.57465C18.3852 15.085 14.473 19.2361 9.83848 19.7317C10.7978 23.3823 13.9796 26.0614 17.7535 26.0614C19.2615 26.0614 20.6709 25.6345 21.8867 24.8887C22.1828 25.085 22.5184 25.2763 22.8815 25.4481C23.604 25.7866 24.4725 26.0614 25.333 26.0614C25.6054 26.0614 25.8502 25.8406 25.9331 25.5168C26.016 25.1929 25.9252 24.8396 25.7041 24.6385L25.6962 24.6286C25.6883 24.6188 25.6725 24.609 25.6528 24.5894C25.6133 24.5501 25.5541 24.4913 25.4831 24.4078C25.3409 24.2459 25.1475 24.0104 24.958 23.7062C24.7409 23.3627 24.5356 22.9505 24.3974 22.4942C25.3804 21.0712 25.9607 19.3195 25.9607 17.4206C25.9607 12.8671 22.6092 9.13304 18.3575 8.80919C18.3733 9.05944 18.3812 9.31459 18.3812 9.56974L18.3852 9.57465Z" fill="black" fill-opacity="0.5"/>
</g>
<defs>
<clipPath id="clip0_26354_121">
<rect width="25.265" height="25.1227" fill="white" transform="translate(0.699707 0.938721)"/>
</clipPath>
</defs>
</svg>
