<svg width="26" height="26" viewBox="0 0 26 26" fill="none" xmlns="http://www.w3.org/2000/svg">
<path d="M20.51 11.9875L21.0558 11.433L19.4184 9.76964L16.4189 6.72253L14.7815 5.05913L14.2357 5.6136L13.1441 6.72253L3.52242 16.4968C3.02008 17.0071 2.65299 17.6401 2.45013 18.332L0.740258 24.2397C0.619504 24.6519 0.730597 25.0984 1.0349 25.4026C1.33919 25.7068 1.77391 25.8197 2.17964 25.7019L7.9903 23.9649C8.67134 23.7589 9.29443 23.3859 9.79677 22.8756L19.4184 13.1013L20.51 11.9875ZM8.42018 20.2505L7.98063 21.3643C7.78743 21.5165 7.57007 21.6293 7.33823 21.7029L3.56106 22.8315L4.67199 18.9993C4.73961 18.7589 4.85554 18.538 5.00527 18.3467L6.10171 17.9002V19.4703C6.10171 19.9021 6.44948 20.2554 6.87453 20.2554H8.42018V20.2505ZM18.2109 1.57041L17.5153 2.28189L16.4237 3.39083L15.8731 3.94529L17.5105 5.60869L20.51 8.6558L22.1474 10.3192L22.6932 9.76473L23.7848 8.6558L24.4852 7.94432C25.6928 6.71762 25.6928 4.73038 24.4852 3.50368L22.587 1.57041C21.3794 0.343717 19.4232 0.343717 18.2157 1.57041H18.2109ZM15.9214 9.8138L8.96598 16.8796C8.66651 17.1838 8.17384 17.1838 7.87437 16.8796C7.5749 16.5753 7.5749 16.0748 7.87437 15.7706L14.8298 8.70487C15.1292 8.40065 15.6219 8.40065 15.9214 8.70487C16.2209 9.00909 16.2209 9.50958 15.9214 9.8138Z" fill="black" fill-opacity="0.5"/>
</svg>
