<svg width="24" height="23" viewBox="0 0 24 23" fill="none" xmlns="http://www.w3.org/2000/svg">
<path d="M2.83273 13.7807L11.0636 22.1697C11.4052 22.5178 11.8562 22.7117 12.3253 22.7117C12.7945 22.7117 13.2454 22.5178 13.5871 22.1697L21.8179 13.7807C23.2026 12.3734 23.9861 10.3993 23.9861 8.3356V8.04718C23.9861 4.57125 21.6858 1.60751 18.5474 1.03564C16.4704 0.657718 14.3569 1.39865 12.8719 3.01976L12.3253 3.61649L11.7787 3.01976C10.2938 1.39865 8.18029 0.657718 6.10321 1.03564C2.96482 1.60751 0.664551 4.57125 0.664551 8.04718V8.3356C0.664551 10.3993 1.44801 12.3734 2.83273 13.7807Z" fill="black" fill-opacity="0.5"/>
</svg>
