<svg width="26" height="26" viewBox="0 0 26 26" fill="none" xmlns="http://www.w3.org/2000/svg">
<g opacity="0.5" clip-path="url(#clip0_26354_117)">
<path d="M7.692 1.51889C7.99654 0.984052 8.62252 0.650391 9.30491 0.650391H16.0949C16.7773 0.650391 17.4032 0.984052 17.7078 1.51889L18.1138 2.22056H23.5278C24.526 2.22056 25.3324 2.92223 25.3324 3.79073C25.3324 4.65923 24.526 5.3609 23.5278 5.3609H1.87203C0.873833 5.3609 0.0673828 4.65923 0.0673828 3.79073C0.0673828 2.92223 0.873833 2.22056 1.87203 2.22056H7.28596L7.692 1.51889ZM1.87203 6.93107H23.5278V22.6328C23.5278 24.3648 21.9092 25.7731 19.9185 25.7731H5.48132C3.49057 25.7731 1.87203 24.3648 1.87203 22.6328V6.93107ZM7.28596 10.0714C6.78968 10.0714 6.38364 10.4247 6.38364 10.8565V21.8477C6.38364 22.2795 6.78968 22.6328 7.28596 22.6328C7.78224 22.6328 8.18828 22.2795 8.18828 21.8477V10.8565C8.18828 10.4247 7.78224 10.0714 7.28596 10.0714ZM12.6999 10.0714C12.2036 10.0714 11.7976 10.4247 11.7976 10.8565V21.8477C11.7976 22.2795 12.2036 22.6328 12.6999 22.6328C13.1962 22.6328 13.6022 22.2795 13.6022 21.8477V10.8565C13.6022 10.4247 13.1962 10.0714 12.6999 10.0714ZM18.1138 10.0714C17.6175 10.0714 17.2115 10.4247 17.2115 10.8565V21.8477C17.2115 22.2795 17.6175 22.6328 18.1138 22.6328C18.6101 22.6328 19.0161 22.2795 19.0161 21.8477V10.8565C19.0161 10.4247 18.6101 10.0714 18.1138 10.0714Z" fill="#343A40"/>
</g>
<defs>
<clipPath id="clip0_26354_117">
<rect width="25.265" height="25.1227" fill="white" transform="translate(0.0673828 0.650391)"/>
</clipPath>
</defs>
</svg>
